<svg xmlns="http://www.w3.org/2000/svg" viewBox="0 0 66.01 66.01"><title>Asset 1</title><g id="Layer_2" data-name="Layer 2"><g id="Layer_1-2" data-name="Layer 1"><path d="M66,33A33,33,0,1,0,0,33V66H33c-.57,0-1.13,0-1.69,0,.56,0,1.12,0,1.69,0A33,33,0,0,0,66,33M53,41.45A21.88,21.88,0,0,1,40.51,54.52a22,22,0,0,1-8.25,1.65h0A22,22,0,0,1,24,54.52a21.74,21.74,0,0,1-7.26-4.8,21.51,21.51,0,0,1-4.79-7.26A21.51,21.51,0,0,1,12,26a21.89,21.89,0,0,1,11.5-11.83,22.46,22.46,0,0,1,6.65-1.74V5.32L30.42,5a2.61,2.61,0,0,1,1.9-1,2,2,0,0,1,1.45.67l9.12,9.18a3.72,3.72,0,0,1,.82,1.59,2.14,2.14,0,0,1-.53,2.13L33.71,27a1.9,1.9,0,0,1-1.42.64h0a2.61,2.61,0,0,1-1.89-1l-.32-.34V20a13.71,13.71,0,0,0-8,4,14.16,14.16,0,0,0-3.74,6.48,14.4,14.4,0,0,0,0,7.43A14.47,14.47,0,0,0,28.55,48.14a14.47,14.47,0,0,0,7.42,0A14.5,14.5,0,0,0,45.84,39a14.59,14.59,0,0,0,.74-6.24l-.11-1.14L54,30.7l.13,1.19A21.93,21.93,0,0,1,53,41.45M0,32.73V33a2.53,2.53,0,0,1,0-.28H0" style="fill:#16223d"/></g></g></svg>